<?xml version="1.0" encoding="utf-8"?>
<!-- Generator: Adobe Illustrator 28.0.0, SVG Export Plug-In . SVG Version: 6.00 Build 0)  -->
<svg version="1.1" id="Ebene_1" xmlns="http://www.w3.org/2000/svg" xmlns:xlink="http://www.w3.org/1999/xlink" x="0px" y="0px"
	 viewBox="0 0 38.4 63.9" style="enable-background:new 0 0 38.4 63.9;" xml:space="preserve">
<style type="text/css">
	.st0{fill:url(#SVGID_1_);}
	.st1{fill:url(#SVGID_00000046326909178079083810000009004394231115646909_);}
	.st2{fill-rule:evenodd;clip-rule:evenodd;fill:#FFFFFF;}
</style>
<g>
	<g>
		<g>
			<g>
				<g>
					<g>
						<g>
							<linearGradient id="SVGID_1_" gradientUnits="userSpaceOnUse" x1="25.8424" y1="69.0625" x2="9.3837" y2="45.6547">
								<stop  offset="2.489630e-02" style="stop-color:#71B73A"/>
								<stop  offset="0.4544" style="stop-color:#71B53A"/>
								<stop  offset="0.6621" style="stop-color:#6EB038"/>
								<stop  offset="0.8221" style="stop-color:#69A735"/>
								<stop  offset="0.957" style="stop-color:#639B32"/>
								<stop  offset="1" style="stop-color:#619630"/>
							</linearGradient>
							<path class="st0" d="M1.9,52c-0.1,0.1-0.1,0.2,0,0.3c5.8,4.2,11.5,7.9,14.5,9.8c0.9,0.6,2.1,0,2.1-0.9c0-3.8,0-12.1,0-19.9
								c0-0.2-0.2-0.3-0.4-0.1C10.6,46.6,3.3,51.2,1.9,52z"/>
							
								<linearGradient id="SVGID_00000158711981411959613170000009684903977991396273_" gradientUnits="userSpaceOnUse" x1="-15.8925" y1="48.2069" x2="40.601" y2="0.7055">
								<stop  offset="2.074690e-02" style="stop-color:#91C138"/>
								<stop  offset="1" style="stop-color:#71B73A"/>
							</linearGradient>
							<path style="fill:url(#SVGID_00000158711981411959613170000009684903977991396273_);" d="M26.5,3.7c-9-4.5-21,0.1-24.7,8.7
								c0,0,0,35.7,0,39.7c0,0.2,0.2,0.3,0.3,0.2c3.3-2.1,30.6-18.8,33.8-27C38.5,18.5,35.3,8.2,26.5,3.7z"/>
						</g>
					</g>
				</g>
			</g>
		</g>
	</g>
	<path id="fork_1_" class="st2" d="M16.1,9.2H16c-0.3,0-0.5,0.2-0.5,0.5v6.5h-1.4V9.8c0-0.3-0.2-0.5-0.5-0.5h-0.1
		c-0.3,0-0.5,0.2-0.5,0.5v6.5h-1.4V9.8c0-0.3-0.2-0.5-0.5-0.5h-0.1c-0.3,0-0.5,0.2-0.5,0.5v6.5c0,0,0,0,0,0c0,1.3,0.9,2.3,2.1,2.8
		v12.8c0,0.6,0.5,1,1,1h0.1c0.6,0,1-0.5,1-1V19c1.2-0.4,2-1.5,2.1-2.8c0,0,0,0,0,0V9.8C16.6,9.5,16.4,9.2,16.1,9.2z"/>
	<path id="knife_1_" class="st2" d="M23.7,9.2c-0.6,0-1.1,0.5-1.2,1l0,0l0,0.1l-1.9,13.2h1.9v8.1c0,0.6,0.5,1.1,1.2,1.1
		c0.6,0,1.2-0.5,1.2-1.1V10.3C24.9,9.7,24.3,9.2,23.7,9.2z"/>
</g>
</svg>
